<?xml version="1.0" standalone="no"?><!DOCTYPE svg PUBLIC "-//W3C//DTD SVG 1.1//EN" "http://www.w3.org/Graphics/SVG/1.1/DTD/svg11.dtd"><svg t="1619904551305" class="icon" viewBox="0 0 1024 1024" version="1.1" xmlns="http://www.w3.org/2000/svg" p-id="2036" xmlns:xlink="http://www.w3.org/1999/xlink" width="200" height="200"><defs><style type="text/css"></style></defs><path d="M1024 512c0 192-106.666667 360.533333-264.533333 448-74.666667 40.533333-157.866667 64-247.466667 64s-174.933333-23.466667-247.466667-64C106.666667 872.533333 0 704 0 512 0 230.4 230.4 0 512 0s512 230.4 512 512z" fill="#B8CCE6" p-id="2037"></path><path d="M469.333333 661.333333h85.333334v149.333334h-85.333334z" fill="#E6F1FF" p-id="2038"></path><path d="M759.466667 960c-74.666667 40.533333-157.866667 64-247.466667 64s-174.933333-23.466667-247.466667-64c27.733333-110.933333 128-192 247.466667-192s219.733333 81.066667 247.466667 192z" fill="#FFFFFF" p-id="2039"></path><path d="M808.533333 422.4h29.866667c8.533333 0 14.933333 6.4 14.933333 14.933333V618.666667c0 8.533333-6.4 14.933333-14.933333 14.933333h-29.866667c-8.533333 0-14.933333-6.4-14.933333-14.933333v-181.333334c0-8.533333 6.4-14.933333 14.933333-14.933333zM185.6 422.4h29.866667c8.533333 0 14.933333 6.4 14.933333 14.933333V618.666667c0 8.533333-6.4 14.933333-14.933333 14.933333H185.6c-8.533333 0-14.933333-4.266667-14.933333-14.933333v-181.333334c0-8.533333 6.4-14.933333 14.933333-14.933333z" fill="#E6F1FF" p-id="2040"></path><path d="M708.266667 341.333333c34.133333 0 59.733333 25.6 59.733333 59.733334v266.666666c0 32-27.733333 59.733333-59.733333 59.733334H315.733333c-34.133333 0-59.733333-25.6-59.733333-59.733334V401.066667c0-32 27.733333-59.733333 59.733333-59.733334h392.533334zM618.666667 490.666667c-23.466667 0-42.666667 19.2-42.666667 42.666666s19.2 42.666667 42.666667 42.666667 42.666667-19.2 42.666666-42.666667-19.2-42.666667-42.666666-42.666666z m-192 6.4c-21.333333-12.8-46.933333-4.266667-57.6 14.933333-4.266667 6.4-6.4 12.8-6.4 21.333333 0 23.466667 19.2 42.666667 42.666666 42.666667s42.666667-19.2 42.666667-42.666667c0-14.933333-8.533333-29.866667-21.333333-36.266666z" fill="#FFFFFF" p-id="2041"></path><path d="M501.333333 362.666667h21.333334v-85.333334h-21.333334z" fill="#FFFFFF" p-id="2042"></path><path d="M512 256m-42.666667 0a42.666667 42.666667 0 1 0 85.333334 0 42.666667 42.666667 0 1 0-85.333334 0Z" fill="#FFFFFF" p-id="2043"></path><path d="M512 0c283.733333 0 512 228.266667 512 512S795.733333 1024 512 1024 0 795.733333 0 512 228.266667 0 512 0z m0 21.333333C241.066667 21.333333 21.333333 241.066667 21.333333 512s219.733333 490.666667 490.666667 490.666667 490.666667-219.733333 490.666667-490.666667S782.933333 21.333333 512 21.333333z" fill="#E9EAEB" p-id="2044"></path></svg>